<?xml version="1.0" encoding="utf-8"?>
<!-- Generator: Adobe Illustrator 26.0.2, SVG Export Plug-In . SVG Version: 6.00 Build 0)  -->
<svg version="1.1" id="Layer_1" xmlns="http://www.w3.org/2000/svg" xmlns:xlink="http://www.w3.org/1999/xlink" x="0px" y="0px"
	 viewBox="0 0 20 20" style="enable-background:new 0 0 20 20;" xml:space="preserve">
<style type="text/css">
	.st0{fill-rule:evenodd;clip-rule:evenodd;fill:#FFFFFF;}
</style>
<path class="st0" d="M13.9,1.9c-0.1-0.1-0.3-0.2-0.5-0.2H4.1c-1.3,0-2.4,1.1-2.4,2.4V16c0,1.3,1.1,2.4,2.4,2.4h11.9
	c1.3,0,2.4-1.1,2.4-2.4V6.6c0-0.2-0.1-0.4-0.2-0.5L13.9,1.9z M13.5,16.9h-7v-5.3h7V16.9z M16.9,16c0,0.5-0.4,0.9-0.9,0.9H15v-6
	c0-0.4-0.3-0.7-0.7-0.7H5.8c-0.4,0-0.7,0.3-0.7,0.7v6H4.1c-0.5,0-0.9-0.4-0.9-0.9V4.1c0-0.5,0.4-0.9,0.9-0.9H5v3.5
	c0,0.4,0.3,0.7,0.7,0.7h6.8c0.4,0,0.7-0.3,0.7-0.7s-0.3-0.7-0.7-0.7h-6V3.2h6.6L16.9,7V16z"/>
</svg>
