<?xml version="1.0" encoding="utf-8"?>
<!-- Generator: Adobe Illustrator 26.0.2, SVG Export Plug-In . SVG Version: 6.00 Build 0)  -->
<svg version="1.1" id="Layer_1" xmlns="http://www.w3.org/2000/svg" xmlns:xlink="http://www.w3.org/1999/xlink" x="0px" y="0px"
	 viewBox="0 0 40 40" style="enable-background:new 0 0 40 40;" xml:space="preserve">
<style type="text/css">
	.st0{fill:#FFFFFF;fill-opacity:0;}
	.st1{fill:#AAAAAA;}
	.st2{fill:#397EF5;}
</style>
<rect class="st0" width="40" height="40"/>
<g>
	<path class="st1" d="M33.2,3.3H6.6c-1,0-1.9,0.4-2.6,1.1C3.4,5.1,3,6,3,7v9.7c0,1,0.4,1.9,1.1,2.6s1.6,1.1,2.6,1.1h9.7
		c0.4,0,0.8-0.2,1-0.6s0.2-0.8,0-1.2c-0.2-0.4-0.6-0.6-1-0.6H6.6c-0.3,0-0.6-0.1-0.9-0.4c-0.2-0.2-0.4-0.5-0.4-0.9V7
		c0-0.3,0.1-0.6,0.4-0.9C6,5.9,6.3,5.7,6.6,5.7h26.6c0.3,0,0.6,0.1,0.9,0.4c0.2,0.2,0.4,0.5,0.4,0.9v9.7c0,0.4,0.2,0.8,0.6,1
		s0.8,0.2,1.2,0s0.6-0.6,0.6-1V7c0-1-0.4-1.9-1.1-2.6C35.1,3.7,34.2,3.3,33.2,3.3L33.2,3.3z"/>
	<path class="st1" d="M16.4,9.4c-0.2-0.3-0.4-0.5-0.7-0.6s-0.6,0-0.9,0.1l-1.3,0.8V8.2c0-0.4-0.2-0.8-0.6-1c-0.4-0.2-0.8-0.2-1.2,0
		s-0.6,0.6-0.6,1v1.5L9.7,8.9c-0.4-0.2-0.8-0.2-1.2,0s-0.6,0.6-0.6,1s0.2,0.8,0.6,1l1.3,0.8l-1.3,0.8c-0.4,0.2-0.6,0.6-0.6,1
		s0.2,0.8,0.6,1s0.8,0.2,1.2,0l1.3-0.8v1.5c0,0.4,0.2,0.8,0.6,1c0.4,0.2,0.8,0.2,1.2,0s0.6-0.6,0.6-1v-1.5l1.3,0.8l0,0
		c0.4,0.2,0.8,0.2,1.2,0c0.4-0.2,0.6-0.6,0.6-1s-0.2-0.8-0.6-1l-1.3-0.8l1.3-0.8c0.3-0.2,0.5-0.4,0.6-0.7C16.6,10,16.5,9.7,16.4,9.4
		L16.4,9.4z"/>
	<path class="st1" d="M18.9,14.2c0.2,0.3,0.4,0.5,0.7,0.6c0.3,0.1,0.6,0,0.9-0.1l1.3-0.8v1.5c0,0.4,0.2,0.8,0.6,1s0.8,0.2,1.2,0
		c0.4-0.2,0.6-0.6,0.6-1v-1.5l1.3,0.8l0,0c0.4,0.2,0.8,0.2,1.2,0c0.4-0.2,0.6-0.6,0.6-1s-0.2-0.8-0.6-1l-1.3-0.8l1.3-0.8
		c0.4-0.2,0.6-0.6,0.6-1s-0.2-0.8-0.6-1s-0.8-0.2-1.2,0l-1.3,0.8V8.4c0-0.4-0.2-0.8-0.6-1s-0.8-0.2-1.2,0c-0.4,0.2-0.6,0.6-0.6,1
		v1.5l-1.3-0.8c-0.4-0.2-0.8-0.2-1.2,0c-0.4,0.2-0.6,0.6-0.6,1s0.2,0.8,0.6,1l1.3,0.8l-1.3,0.8c-0.3,0.2-0.5,0.4-0.6,0.7
		C18.7,13.6,18.7,13.9,18.9,14.2L18.9,14.2z"/>
</g>
<path class="st2" d="M30.4,24.1L26,28.4l-2-2l0,0c-0.3-0.3-0.7-0.4-1.2-0.3c-0.4,0.1-0.7,0.4-0.8,0.8c-0.1,0.4,0,0.9,0.3,1.2
	l2.9,2.9c0.2,0.2,0.5,0.4,0.9,0.4s0.6-0.1,0.9-0.4l5.2-5.2c0.3-0.3,0.4-0.7,0.3-1.2c-0.1-0.4-0.4-0.7-0.8-0.8
	C31.1,23.6,30.7,23.8,30.4,24.1L30.4,24.1z"/>
<path class="st2" d="M27.2,17.8c-2.6,0-5,1-6.8,2.8s-2.8,4.3-2.8,6.8s1,5,2.8,6.8s4.3,2.8,6.8,2.8s5-1,6.8-2.8s2.8-4.3,2.8-6.8
	c0-2.6-1-5-2.8-6.8C32.2,18.9,29.8,17.8,27.2,17.8L27.2,17.8z M27.2,34.8c-1.9,0-3.8-0.8-5.1-2.1c-1.4-1.4-2.1-3.2-2.1-5.1
	s0.8-3.8,2.1-5.1s3.2-2.1,5.1-2.1s3.8,0.8,5.1,2.1c1.4,1.4,2.1,3.2,2.1,5.1s-0.8,3.8-2.1,5.1C31,34,29.1,34.8,27.2,34.8z"/>
</svg>
