<?xml version="1.0" encoding="utf-8"?>
<!-- Generator: Adobe Illustrator 26.0.2, SVG Export Plug-In . SVG Version: 6.00 Build 0)  -->
<svg version="1.1" id="Layer_1" xmlns="http://www.w3.org/2000/svg" xmlns:xlink="http://www.w3.org/1999/xlink" x="0px" y="0px"
	 viewBox="0 0 100 100" style="enable-background:new 0 0 100 100;" xml:space="preserve">
<style type="text/css">
	.st0{fill:#E03939;}
</style>
<path class="st0" d="M50,0L50,0C22.4,0,0,22.4,0,50v0c0,27.6,22.4,50,50,50h0h50V50v0v0C100,22.4,77.6,0,50,0z M79,41.6L50.5,70.1
	c-1,1-2.3,1.5-3.5,1.5c-1.3,0-2.6-0.5-3.5-1.5L27.7,54.4c-2-2-2-5.1,0-7.1c2-2,5.1-2,7.1,0L47,59.5l25-25c2-2,5.1-2,7.1,0
	C81,36.5,81,39.6,79,41.6z"/>
</svg>
