<svg xmlns="http://www.w3.org/2000/svg" xmlns:xlink="http://www.w3.org/1999/xlink" width="56" height="56" viewBox="0 0 56 56">
  <defs>
    <clipPath id="clip-path">
      <rect id="사각형_83" data-name="사각형 83" width="50" height="50" fill="none"/>
    </clipPath>
  </defs>
  <g id="그룹_113" data-name="그룹 113" transform="translate(2.963 3.382)">
    <g id="그룹_89" data-name="그룹 89" transform="translate(0 0)" clip-path="url(#clip-path)">
      <path id="패스_37" data-name="패스 37" d="M23.709,5.983H4.232a1.353,1.353,0,0,0,0,2.706H23.709a1.353,1.353,0,0,0,0-2.706" transform="translate(6.852 14.228)" fill="#397ef5"/>
      <path id="패스_38" data-name="패스 38" d="M8.932,2.121h-.01l.007.625Z" transform="translate(21.219 5.043)"/>
      <path id="패스_39" data-name="패스 39" d="M8.926,8.135l-.186.591-.588.186A11.569,11.569,0,0,0,0,20.034V48.652a1.338,1.338,0,0,0,.666,1.159,1.329,1.329,0,0,0,1.348.017l9.878-5.537H30.118a11.542,11.542,0,0,0,10.956-8.128l.182-.588.588-.186A11.57,11.57,0,0,0,50,24.253V11.686A11.644,11.644,0,0,0,38.48,0H19.889A11.535,11.535,0,0,0,8.926,8.135M38.97,32.6a9,9,0,0,1-.128,1.473l-.03.122h0a8.887,8.887,0,0,1-8.706,7.392H11.541a1.339,1.339,0,0,0-.662.176L2.7,46.345v-26.3a8.933,8.933,0,0,1,7.378-8.868,8.627,8.627,0,0,1,1.463-.118H30.112A8.927,8.927,0,0,1,38.97,20.03ZM19.9,2.706H38.446a8.924,8.924,0,0,1,8.848,8.973V24.247l-1.179.01v.01l1.179-.007a8.947,8.947,0,0,1-3.75,7.307l-1.872,1.341V20.044a11.641,11.641,0,0,0-11.527-11.7H11.389L12.71,6.483A8.882,8.882,0,0,1,19.9,2.706" transform="translate(0 -0.001)"/>
      <path id="패스_40" data-name="패스 40" d="M19.566,10.795a1.351,1.351,0,1,0,0-2.7H4.951a1.351,1.351,0,1,0,0,2.7Z" transform="translate(8.562 19.244)" fill="#397ef5"/>
    </g>
    <rect id="사각형_240" data-name="사각형 240" width="56" height="56" transform="translate(-2.963 -3.382)" fill="rgba(255,229,229,0)"/>
  </g>
</svg>
