<svg id="그룹_115" data-name="그룹 115" xmlns="http://www.w3.org/2000/svg" xmlns:xlink="http://www.w3.org/1999/xlink" width="30" height="29.535" viewBox="0 0 30 29.535">
  <defs>
    <clipPath id="clip-path">
      <rect id="사각형_97" data-name="사각형 97" width="30" height="29.535" fill="none"/>
    </clipPath>
  </defs>
  <g id="그룹_114" data-name="그룹 114" clip-path="url(#clip-path)">
    <path id="패스_48" data-name="패스 48" d="M340.509,136.252l-.65-.582-1.574,1.813.65.582a5.558,5.558,0,0,1,1.916,4.242,5.665,5.665,0,0,1-1.916,4.242l-.65.513,1.573,1.779.65-.582a7.953,7.953,0,0,0,0-12.007Z" transform="translate(-318.034 -127.548)"/>
    <path id="패스_49" data-name="패스 49" d="M403.942,95.685l-.616-.581-1.608,1.779.616.582a9.033,9.033,0,0,1,0,13.341l-.616.582,1.608,1.779.616-.582a11.438,11.438,0,0,0,0-16.9Z" transform="translate(-377.671 -89.411)"/>
    <path id="패스_50" data-name="패스 50" d="M18.1.323,18.062.186l-.1-.068A1.1,1.1,0,0,0,16.8.254l-10.5,6.26h-5.2a.769.769,0,0,0-.65.205A2.027,2.027,0,0,0,.171,7.1.542.542,0,0,0,0,7.506V21.976a.551.551,0,0,0,.1.308,1.371,1.371,0,0,0,.274.616,1.21,1.21,0,0,0,.787.376H6.294L16.8,29.4a1.1,1.1,0,0,0,.616.137,1,1,0,0,0,.479-.137l.034-.034a1.124,1.124,0,0,0,.513-1.06V1.144A.81.81,0,0,0,18.1.323ZM16.078,3.264V26.183l-8.21-4.891V8.156ZM5.474,20.881H2.395V8.908H5.474Z" transform="translate(0 0)"/>
  </g>
</svg>
