<?xml version="1.0" encoding="utf-8"?>
<!-- Generator: Adobe Illustrator 26.0.2, SVG Export Plug-In . SVG Version: 6.00 Build 0)  -->
<svg version="1.1" id="Layer_1" xmlns="http://www.w3.org/2000/svg" xmlns:xlink="http://www.w3.org/1999/xlink" x="0px" y="0px"
	 viewBox="0 0 22 15.5" style="enable-background:new 0 0 22 15.5;" xml:space="preserve">
<style type="text/css">
	.st0{clip-path:url(#SVGID_00000045620006233733683380000018360738994663672457_);}
</style>
<g>
	<defs>
		<rect id="SVGID_1_" width="22" height="15.5"/>
	</defs>
	<clipPath id="SVGID_00000058561490532085222530000012791637333874523529_">
		<use xlink:href="#SVGID_1_"  style="overflow:visible;"/>
	</clipPath>
	<g id="그룹_77" style="clip-path:url(#SVGID_00000058561490532085222530000012791637333874523529_);">
		<path id="패스_23" d="M14.8,0.3c-0.3-0.3-0.8-0.4-1.1-0.1s-0.4,0.8-0.1,1.1c0,0,0.1,0.1,0.1,0.1L19.3,7H0.7C0.3,7,0,7.4,0,7.8
			c0,0.4,0.3,0.7,0.7,0.7h18.6l-5.6,5.6c-0.3,0.3-0.3,0.8,0,1.1c0.3,0.3,0.8,0.3,1.1,0l7-7l0,0c0.3-0.3,0.3-0.8,0-1.1c0,0,0,0,0,0
			L14.8,0.3z"/>
	</g>
</g>
</svg>
