<svg id="그룹_826" data-name="그룹 826" xmlns="http://www.w3.org/2000/svg" xmlns:xlink="http://www.w3.org/1999/xlink" width="16" height="18" viewBox="0 0 16 18">
  <defs>
    <clipPath id="clip-path">
      <rect id="사각형_230" data-name="사각형 230" width="16" height="18" fill="none"/>
    </clipPath>
  </defs>
  <g id="그룹_825" data-name="그룹 825" clip-path="url(#clip-path)">
    <path id="패스_734" data-name="패스 734" d="M14.666,6.429H13.334V5.144A5.112,5.112,0,0,0,10.666.689a5.5,5.5,0,0,0-5.333,0A5.112,5.112,0,0,0,2.666,5.144V6.429H1.334A1.31,1.31,0,0,0,0,7.715v9a1.261,1.261,0,0,0,.391.909A1.36,1.36,0,0,0,1.334,18H14.666a1.357,1.357,0,0,0,.942-.376A1.259,1.259,0,0,0,16,16.715v-9a1.257,1.257,0,0,0-.392-.909A1.357,1.357,0,0,0,14.666,6.429ZM9.333,12.857h0a1.335,1.335,0,0,1-2.667,0V11.571a1.335,1.335,0,0,1,2.667,0Zm1.334-6.429H5.334V5.144A2.558,2.558,0,0,1,6.666,2.916a2.755,2.755,0,0,1,2.667,0,2.558,2.558,0,0,1,1.333,2.227Z" transform="translate(0 0)"/>
  </g>
</svg>
