<svg xmlns="http://www.w3.org/2000/svg" xmlns:xlink="http://www.w3.org/1999/xlink" width="56" height="56" viewBox="0 0 56 56">
  <defs>
    <clipPath id="clip-path">
      <rect id="사각형_80" data-name="사각형 80" width="43.718" height="55" fill="none"/>
    </clipPath>
  </defs>
  <g id="그룹_111" data-name="그룹 111" transform="translate(6.245 0.191)">
    <g id="그룹_83" data-name="그룹 83" transform="translate(0 0)" clip-path="url(#clip-path)">
      <path id="패스_28" data-name="패스 28" d="M43.719,52.347V5.095A4.96,4.96,0,0,0,42.34,1.527,4.882,4.882,0,0,0,38.817,0h-34A4.935,4.935,0,0,0,0,5.009V52.295a2.3,2.3,0,0,0,3.349,2.1l6.165-3.144L14.468,54.6a2.28,2.28,0,0,0,2.564,0l4.827-3.285L26.687,54.6a2.266,2.266,0,0,0,2.575,0l4.931-3.359,6.209,3.17a2.347,2.347,0,0,0,2.26-.13,2.266,2.266,0,0,0,1.056-1.932m-2.968-1.1L35.19,48.411a2.242,2.242,0,0,0-2.323.138l-4.89,3.337-4.827-3.293a2.267,2.267,0,0,0-2.568,0l-4.835,3.289L10.912,48.6A2.3,2.3,0,0,0,8.555,48.4L2.965,51.25V4.98A1.986,1.986,0,0,1,4.85,2.973H38.784a1.929,1.929,0,0,1,1.375.617,2.087,2.087,0,0,1,.593,1.472Z" transform="translate(0.415 -0.001)"/>
      <path id="패스_29" data-name="패스 29" d="M22.684,11.973a1.486,1.486,0,0,0,0-2.973H4.478a1.487,1.487,0,0,0,0,2.973Z" transform="translate(8.531 24.444)" fill="#397ef5"/>
      <path id="패스_30" data-name="패스 30" d="M3.5,12.419a1.49,1.49,0,0,0,.433,1.052l3.7,3.716a1.516,1.516,0,0,0,2.1,0L20.85,6.038A1.486,1.486,0,0,0,19.8,3.5h0a1.488,1.488,0,0,0-1.048.435L8.687,14.035,6.03,11.367A1.482,1.482,0,0,0,3.5,12.419" transform="translate(9.883 9.505)" fill="#397ef5"/>
    </g>
    <rect id="사각형_238" data-name="사각형 238" width="56" height="56" transform="translate(-6.245 -0.191)" fill="rgba(255,229,229,0)"/>
  </g>
</svg>
