<svg xmlns="http://www.w3.org/2000/svg" xmlns:xlink="http://www.w3.org/1999/xlink" width="56" height="56" viewBox="0 0 56 56">
  <defs>
    <clipPath id="clip-path">
      <rect id="사각형_95" data-name="사각형 95" width="50" height="53.382" fill="none"/>
    </clipPath>
  </defs>
  <g id="그룹_837" data-name="그룹 837" transform="translate(-562 -4181)">
    <rect id="사각형_237" data-name="사각형 237" width="56" height="56" transform="translate(562 4181)" fill="rgba(255,229,229,0)"/>
    <g id="그룹_106" data-name="그룹 106" transform="translate(564.963 4183)" clip-path="url(#clip-path)">
      <path id="패스_46" data-name="패스 46" d="M50,37.547V15.824A15.846,15.846,0,0,0,35.378.057L35.311.051V.037L15.912,0A15.919,15.919,0,0,0,0,15.834V37.557A15.9,15.9,0,0,0,15.868,53.382H34.091A15.916,15.916,0,0,0,50,37.547M36.486,2.851l1.537.483a13.217,13.217,0,0,1,8.983,9.855l.3,1.426H36.486ZM2.7,37.551V15.841A13.2,13.2,0,0,1,15.878,2.706H33.784v13.26a1.354,1.354,0,0,0,1.351,1.355H47.3v20.22A13.2,13.2,0,0,1,34.122,50.676H15.9A13.2,13.2,0,0,1,2.7,37.551" transform="translate(0 0.001)"/>
      <path id="패스_47" data-name="패스 47" d="M3,10.612a3.584,3.584,0,0,0,.966,2.5L20.972,33.548a3.071,3.071,0,0,0,1.6.953l6.736,1.541.4.037a3.042,3.042,0,0,0,3.024-2.7l-.311-6.845a2.793,2.793,0,0,0-.659-1.618l-.034-.041L14.928,4.693A4.185,4.185,0,0,0,11.59,3.007a4.106,4.106,0,0,0-2.152.611L4.1,7.912a3.785,3.785,0,0,0-1.1,2.7m14.983,1.959L29.715,26.693l.321,6.736L23.07,31.841,11.283,17.662l1.551-.584a9.305,9.305,0,0,0,4.257-3.264ZM6.205,9.689l5.618-4.537,4.145,4.993-.25.645A6.636,6.636,0,0,1,9.634,15L9.073,15,5.4,10.595Z" transform="translate(7.133 7.152)" fill="#397ef5"/>
    </g>
  </g>
</svg>
