<svg id="그룹_93" data-name="그룹 93" xmlns="http://www.w3.org/2000/svg" xmlns:xlink="http://www.w3.org/1999/xlink" width="24" height="24" viewBox="0 0 24 24">
  <defs>
    <clipPath id="clip-path">
      <rect id="사각형_86" data-name="사각형 86" width="24" height="24" fill="#fff"/>
    </clipPath>
  </defs>
  <g id="그룹_92" data-name="그룹 92" clip-path="url(#clip-path)">
    <path id="패스_41" data-name="패스 41" d="M103.43,12a6.007,6.007,0,1,0-4.24-1.759A6,6,0,0,0,103.43,12m0-10.286A4.291,4.291,0,1,1,100.4,2.971a4.285,4.285,0,0,1,3.029-1.257" transform="translate(-92.658)" fill="#fff"/>
    <path id="패스_42" data-name="패스 42" d="M322.724,318.429h-2.571v-2.571a.857.857,0,0,0-1.714,0v2.571h-2.571a.857.857,0,0,0,0,1.714h2.571v2.571a.857.857,0,1,0,1.714,0v-2.571h2.571a.857.857,0,1,0,0-1.714" transform="translate(-299.581 -299.572)" fill="#fff"/>
    <path id="패스_43" data-name="패스 43" d="M16.286,275.253H2.587a.885.885,0,0,1-.714-.367.772.772,0,0,1-.119-.7,9.428,9.428,0,0,1,9.019-6.471,9.546,9.546,0,0,1,5.057,1.443.858.858,0,1,0,.907-1.457,11.263,11.263,0,0,0-5.964-1.7A11.137,11.137,0,0,0,.124,273.65a2.475,2.475,0,0,0,.36,2.243,2.606,2.606,0,0,0,2.1,1.074h13.7a.857.857,0,1,0,0-1.714Z" transform="translate(0 -252.967)" fill="#fff"/>
  </g>
</svg>
