<?xml version="1.0" encoding="utf-8"?>
<!-- Generator: Adobe Illustrator 26.0.2, SVG Export Plug-In . SVG Version: 6.00 Build 0)  -->
<svg version="1.1" id="Layer_1" xmlns="http://www.w3.org/2000/svg" xmlns:xlink="http://www.w3.org/1999/xlink" x="0px" y="0px"
	 viewBox="0 0 100 100" style="enable-background:new 0 0 100 100;" xml:space="preserve">
<path d="M56.4,51c2.5-2.2,4.6-4.9,6-8c1.4-3.1,2.1-6.4,2.1-9.7c0-6.3-2.5-12.4-7-16.8c-4.5-4.5-10.5-7-16.8-7
	c-6.3,0-12.4,2.5-16.8,7c-4.5,4.5-7,10.5-7,16.8c0,3.4,0.7,6.7,2.1,9.7c1.4,3.1,3.4,5.8,6,8c-6.7,3-12.3,7.9-16.3,14
	c-4,6.2-6.1,13.3-6.1,20.6c0,1.3,0.5,2.5,1.4,3.4s2.1,1.4,3.4,1.4s2.5-0.5,3.4-1.4c0.9-0.9,1.4-2.1,1.4-3.4c0-7.6,3-14.9,8.4-20.2
	c5.4-5.4,12.6-8.4,20.2-8.4c7.6,0,14.9,3,20.2,8.4c5.4,5.4,8.4,12.6,8.4,20.2c0,1.3,0.5,2.5,1.4,3.4s2.1,1.4,3.4,1.4
	s2.5-0.5,3.4-1.4c0.9-0.9,1.4-2.1,1.4-3.4c0-7.3-2.1-14.5-6.1-20.6S63.1,54.1,56.4,51L56.4,51z M40.7,47.6c-2.8,0-5.6-0.8-7.9-2.4
	c-2.4-1.6-4.2-3.8-5.3-6.4c-1.1-2.6-1.4-5.5-0.8-8.3c0.6-2.8,1.9-5.3,3.9-7.3c2-2,4.5-3.4,7.3-3.9c2.8-0.6,5.6-0.3,8.3,0.8
	c2.6,1.1,4.8,2.9,6.4,5.3c1.6,2.3,2.4,5.1,2.4,7.9c0,3.8-1.5,7.4-4.2,10.1C48.1,46.1,44.5,47.6,40.7,47.6L40.7,47.6z M96.5,36.3
	c-0.4-0.4-1-0.8-1.6-1c-0.6-0.2-1.2-0.4-1.8-0.4s-1.3,0.1-1.8,0.4c-0.6,0.2-1.1,0.6-1.6,1l-9.5,9.5l-3-3c-0.4-0.4-1-0.8-1.6-1
	c-0.6-0.2-1.2-0.4-1.8-0.4c-0.6,0-1.3,0.1-1.8,0.4c-0.6,0.2-1.1,0.6-1.5,1c-0.9,0.9-1.4,2.1-1.4,3.4c0,1.3,0.5,2.5,1.4,3.4l6.4,6.4
	c0.9,0.9,2.1,1.4,3.4,1.4c1.3,0,2.5-0.5,3.4-1.4l12.7-12.7c0.5-0.4,0.9-1,1.1-1.5c0.3-0.6,0.4-1.2,0.4-1.9c0-0.6-0.1-1.3-0.3-1.9
	C97.3,37.3,96.9,36.8,96.5,36.3L96.5,36.3z"/>
</svg>
