<?xml version="1.0" encoding="utf-8"?>
<!-- Generator: Adobe Illustrator 26.0.2, SVG Export Plug-In . SVG Version: 6.00 Build 0)  -->
<svg version="1.1" id="Layer_1" xmlns="http://www.w3.org/2000/svg" xmlns:xlink="http://www.w3.org/1999/xlink" x="0px" y="0px"
	 viewBox="0 0 40 40" style="enable-background:new 0 0 40 40;" xml:space="preserve">
<style type="text/css">
	.st0{opacity:0;fill:#FFFFFF;}
	.st1{fill:none;stroke:#AAAAAA;stroke-width:2.3;stroke-linecap:round;stroke-linejoin:round;stroke-miterlimit:18.6668;}
	.st2{fill:none;stroke:#397EF5;stroke-width:2.3;stroke-linecap:round;stroke-linejoin:round;stroke-miterlimit:18.6668;}
</style>
<rect class="st0" width="40" height="40"/>
<path class="st1" d="M16.8,18c-0.6,0-1.2,0-1.8,0.1c-2.6,0.4-4.9,1.7-6.6,3.7c-1.7,2-2.6,4.5-2.6,7.1h7.9"/>
<g>
	<line class="st2" x1="26.2" y1="24.8" x2="26.2" y2="31.3"/>
	<line class="st2" x1="29.5" y1="28" x2="23" y2="28"/>
</g>
<path class="st2" d="M26.2,19.7c-2.2,0-4.3,0.9-5.9,2.5c-1.6,1.6-2.5,3.7-2.5,5.9s0.9,4.3,2.5,5.9c1.6,1.6,3.7,2.5,5.9,2.5
	s4.3-0.9,5.9-2.5c1.6-1.6,2.5-3.7,2.5-5.9s-0.9-4.3-2.5-5.9C30.6,20.6,28.5,19.7,26.2,19.7z"/>
<path class="st1" d="M23.9,11.1c0,1.8-0.7,3.5-2,4.8c-1.3,1.3-3,2-4.8,2c-1.8,0-3.5-0.7-4.8-2c-1.3-1.3-2-3-2-4.8
	c0-1.8,0.7-3.5,2-4.8c1.3-1.3,3-2,4.8-2c1.8,0,3.5,0.7,4.8,2C23.2,7.6,23.9,9.3,23.9,11.1z"/>
</svg>
