<svg xmlns="http://www.w3.org/2000/svg" width="48" height="72" viewBox="0 0 48 72">
  <g id="그룹_821" data-name="그룹 821" transform="translate(-922 -584)">
    <path id="사각형_176" data-name="사각형 176" d="M5,0H24a0,0,0,0,1,0,0V72a0,0,0,0,1,0,0H5a5,5,0,0,1-5-5V5A5,5,0,0,1,5,0Z" transform="translate(922 584)" fill="#fff"/>
    <path id="사각형_177" data-name="사각형 177" d="M5,0H24a0,0,0,0,1,0,0V72a0,0,0,0,1,0,0H5a5,5,0,0,1-5-5V5A5,5,0,0,1,5,0Z" transform="translate(970 656) rotate(180)" fill="#e2e7ef"/>
    <path id="패스_51" data-name="패스 51" d="M-7564.3-7820.427l5.325,5.325,5.323-5.325" transform="translate(8776.102 -6938.98) rotate(-90)" fill="none" stroke="#fff" stroke-linecap="round" stroke-linejoin="round" stroke-width="2"/>
    <path id="패스_52" data-name="패스 52" d="M-7564.3-7820.427l5.325,5.325,5.323-5.325" transform="translate(-6883.766 8178.98) rotate(90)" fill="none" stroke="#dbe3ef" stroke-linecap="round" stroke-linejoin="round" stroke-width="2"/>
  </g>
</svg>
