<?xml version="1.0" encoding="utf-8"?>
<!-- Generator: Adobe Illustrator 26.0.2, SVG Export Plug-In . SVG Version: 6.00 Build 0)  -->
<svg version="1.1" id="Layer_1" xmlns="http://www.w3.org/2000/svg" xmlns:xlink="http://www.w3.org/1999/xlink" x="0px" y="0px"
	 viewBox="0 0 24 24" style="enable-background:new 0 0 24 24;" xml:space="preserve">
<style type="text/css">
	.st0{clip-path:url(#SVGID_00000163046927139033326550000012166492523399967161_);}
</style>
<g id="그룹_95" transform="translate(0 0.004)">
	<g>
		<defs>
			<rect id="SVGID_1_" y="0" width="24" height="24"/>
		</defs>
		<clipPath id="SVGID_00000131354678857297741010000017082956234667725730_">
			<use xlink:href="#SVGID_1_"  style="overflow:visible;"/>
		</clipPath>
		
			<g id="그룹_94" transform="translate(0 -0.004)" style="clip-path:url(#SVGID_00000131354678857297741010000017082956234667725730_);">
			<path id="패스_44" d="M15,0c0.8,0,1.5,0.7,1.5,1.5v6.8H15V2.4l0,0c0-0.5-0.4-0.9-0.9-0.9H2.4c-0.5,0-0.9,0.4-0.9,0.9l0,19.2
				c0,0.5,0.4,0.9,0.9,0.9c0,0,0,0,0,0h11.6c0.5,0,0.9-0.4,0.9-0.9v-5.8h1.5v6.7c0,0.8-0.7,1.5-1.5,1.5H1.5C0.7,24,0,23.3,0,22.5
				v-21C0,0.7,0.7,0,1.5,0L15,0z M18.5,16.5L18.5,16.5c-0.3-0.3-0.3-0.8,0-1.1l2.8-2.8H6.8C6.4,12.7,6,12.4,6,12s0.3-0.8,0.8-0.8
				h14.4l-2.7-2.7l0,0c-0.3-0.3-0.3-0.8,0-1.1c0.3-0.3,0.8-0.3,1.1,0c0,0,0,0,0,0L24,12l-4.4,4.5C19.3,16.8,18.8,16.8,18.5,16.5
				L18.5,16.5z"/>
		</g>
	</g>
</g>
</svg>
