<svg xmlns="http://www.w3.org/2000/svg" xmlns:xlink="http://www.w3.org/1999/xlink" width="56" height="56" viewBox="0 0 56 56">
  <defs>
    <clipPath id="clip-path">
      <rect id="사각형_81" data-name="사각형 81" width="50" height="50" fill="none"/>
    </clipPath>
  </defs>
  <g id="그룹_112" data-name="그룹 112" transform="translate(2.964 2.691)">
    <g id="그룹_85" data-name="그룹 85" transform="translate(0 0)" clip-path="url(#clip-path)">
      <path id="패스_31" data-name="패스 31" d="M21.865,9.7a1.351,1.351,0,1,0,0-2.7H8.351a1.351,1.351,0,1,0,0,2.7Z" transform="translate(16.649 16.648)" fill="#397ef5"/>
      <path id="패스_32" data-name="패스 32" d="M17.108,12.705a1.353,1.353,0,0,0,0-2.706H10.351a1.353,1.353,0,0,0,0,2.706Z" transform="translate(21.405 23.78)" fill="#397ef5"/>
      <path id="패스_33" data-name="패스 33" d="M26.622,6.7a1.351,1.351,0,1,0,0-2.7H6.351a1.351,1.351,0,0,0,0,2.7Z" transform="translate(11.892 9.513)" fill="#397ef5"/>
      <path id="패스_34" data-name="패스 34" d="M14.865,50H41.892A8.119,8.119,0,0,0,50,41.892V8.108A8.117,8.117,0,0,0,41.892,0H14.865A8.117,8.117,0,0,0,6.757,8.108v5.405H1.351a1.351,1.351,0,1,0,0,2.7H6.757v7.432H1.351a1.351,1.351,0,1,0,0,2.7H6.757V33.78H1.351a1.353,1.353,0,0,0,0,2.706H6.757v5.405A8.119,8.119,0,0,0,14.865,50M9.459,36.486h2.027a1.353,1.353,0,0,0,0-2.706H9.459V26.351h2.027a1.351,1.351,0,1,0,0-2.7H9.459V16.216h2.027a1.351,1.351,0,1,0,0-2.7H9.459V8.108A5.41,5.41,0,0,1,14.865,2.7H41.892A5.41,5.41,0,0,1,47.3,8.108V41.892a5.412,5.412,0,0,1-5.405,5.4H14.865a5.412,5.412,0,0,1-5.405-5.4Z" transform="translate(0 -0.001)"/>
    </g>
    <rect id="사각형_239" data-name="사각형 239" width="56" height="56" transform="translate(-2.964 -2.691)" fill="rgba(255,229,229,0)"/>
  </g>
</svg>
