<?xml version="1.0" encoding="utf-8"?>
<!-- Generator: Adobe Illustrator 26.0.2, SVG Export Plug-In . SVG Version: 6.00 Build 0)  -->
<svg version="1.1" id="Layer_1" xmlns="http://www.w3.org/2000/svg" xmlns:xlink="http://www.w3.org/1999/xlink" x="0px" y="0px"
	 viewBox="0 0 24 24" style="enable-background:new 0 0 24 24;" xml:space="preserve">
<style type="text/css">
	.st0{opacity:0;fill:#FFFFFF;}
</style>
<rect x="0" y="0" class="st0" width="24" height="24"/>
<g>
	<path d="M12,2.3C9.4,2.3,7.3,4.4,7.3,7c0,2.6,2.1,4.7,4.7,4.7c2.6,0,4.7-2.1,4.7-4.7C16.7,4.4,14.6,2.3,12,2.3z M12,10.1
		c-1.8,0-3.1-1.4-3.1-3.1s1.4-3.1,3.1-3.1c1.8,0,3.1,1.4,3.1,3.1S13.8,10.1,12,10.1z"/>
	<path d="M14,13.2H10c-4.3,0-7.7,3.4-7.7,7.7c0,0.5,0.3,0.8,0.8,0.8c0.5,0,0.8-0.3,0.8-0.8c0-3.4,2.8-6.1,6.2-6.1H14
		c3.4,0,6.2,2.7,6.2,6.1c0,0.5,0.3,0.8,0.8,0.8c0.5,0,0.8-0.3,0.8-0.8C21.7,16.8,18.1,13.2,14,13.2z"/>
</g>
</svg>
