<?xml version="1.0" encoding="utf-8"?>
<!-- Generator: Adobe Illustrator 26.0.2, SVG Export Plug-In . SVG Version: 6.00 Build 0)  -->
<svg version="1.1" id="Layer_1" xmlns="http://www.w3.org/2000/svg" xmlns:xlink="http://www.w3.org/1999/xlink" x="0px" y="0px"
	 viewBox="0 0 20 20" style="enable-background:new 0 0 20 20;" xml:space="preserve">
<style type="text/css">
	.st0{fill:#FFFFFF;}
</style>
<path class="st0" d="M18.4,3.3c-3.8,4.2-7,7.9-10.1,13.5c0,0.1-0.1,0.1-0.1,0.1h0c-0.1,0-0.1,0-0.1-0.1c-1.9-3.2-3.1-5-5.7-7.1
	c-0.1,0-0.1-0.1-0.1-0.2c0-0.1,0.1-0.1,0.1-0.1l2.5-0.5c0,0,0.1,0,0.1,0c0.9,0.5,2.3,1.5,3,2.3c5-6.1,8.1-8.1,8.1-8.1
	c0,0,0.1,0,0.1,0l2-0.1c0.1,0,0.1,0,0.2,0.1C18.4,3.2,18.4,3.3,18.4,3.3L18.4,3.3z"/>
</svg>
